<svg width="277" height="85" viewBox="0 0 277 85" fill="none" xmlns="http://www.w3.org/2000/svg">
<path d="M140.5 70.4335V70.756L140.503 70.7572C140.582 75.8553 142.553 79.2191 145.834 81.3299C146.618 81.8343 147.474 82.2649 148.391 82.6306C148.189 82.6807 147.98 82.7296 147.766 82.7773C146.883 82.7283 146.008 82.6784 145.143 82.628C143.273 82.5192 141.449 82.4084 139.685 82.3013C133.133 81.9033 127.428 81.5567 123.41 81.5567C118.292 81.5567 114.625 82.1178 112.008 82.6367C111.355 82.7661 110.768 82.8928 110.243 83.0067L110.138 83.0294C109.655 83.1343 109.229 83.2267 108.849 83.3006C108.015 83.463 107.486 83.5164 107.133 83.451C106.971 83.4211 106.866 83.3692 106.789 83.3035C106.709 83.2365 106.628 83.13 106.555 82.9462C106.399 82.5568 106.314 81.9219 106.288 80.8964C106.262 79.9158 106.29 78.6432 106.326 76.992L106.329 76.8372C106.366 75.1157 106.41 73.0051 106.41 70.4335C106.41 65.238 105.127 58.6562 103.541 51.7504C103.03 49.5269 102.488 47.2696 101.945 45.01C100.795 40.2261 99.6436 35.4318 98.7827 30.9254C98.5442 29.677 98.3288 28.4545 98.1425 27.264C100.469 28.6192 102.744 30.0144 104.956 31.4396C115.249 38.0692 124.157 45.3307 130.484 52.201C133.649 55.6363 136.159 58.9641 137.875 62.0571C139.595 65.1549 140.5 67.9847 140.5 70.4335ZM146.375 80.4889C143.508 78.6447 141.701 75.7484 141.516 71.2188C144.35 72.5249 146.62 73.713 148.382 74.7917C150.296 75.9641 151.583 76.9914 152.342 77.8804C153.106 78.7736 153.271 79.4445 153.144 79.9505C153.013 80.475 152.524 81.0174 151.522 81.537C151.098 81.7569 150.602 81.9626 150.038 82.1546C148.677 81.7268 147.448 81.1791 146.375 80.4889ZM154.676 83.1242C153.616 82.9904 152.604 82.8149 151.644 82.5912C151.761 82.5367 151.874 82.4812 151.983 82.4247C153.074 81.8588 153.879 81.1359 154.114 80.1928C154.355 79.2311 153.958 78.2322 153.103 77.2308C152.243 76.2251 150.854 75.1331 148.904 73.9389C147.009 72.7783 144.559 71.5062 141.501 70.1121C141.587 60.1464 145.637 51.9653 152.055 42.5509C152.545 41.832 153.049 41.1064 153.565 40.3728C165.848 51.5071 181.936 63.0664 206.949 70.8006C206.764 75.3857 203.104 78.4519 197.026 80.4341C195.713 80.8623 194.297 81.2362 192.792 81.5612C192.505 81.5582 192.226 81.5566 191.954 81.5566C187.254 81.5566 182.009 82.0303 176.745 82.5058C176.289 82.547 175.833 82.5882 175.377 82.6291C171.497 82.9772 167.63 83.3041 163.966 83.4268C160.86 83.3671 157.744 83.2592 154.676 83.1242ZM36.4544 7.5C55.5978 7.50001 77.9431 15.6814 97.0333 26.6231C97.2482 28.0816 97.5081 29.5827 97.8004 31.113C98.6658 35.6426 99.8272 40.477 100.98 45.2738C101.521 47.5275 102.06 49.7728 102.566 51.9743C104.154 58.8865 105.41 65.3657 105.41 70.4335C105.41 72.9936 105.366 75.0951 105.329 76.8156L105.325 76.9923C105.29 78.624 105.262 79.9176 105.288 80.9224C105.315 81.9488 105.398 82.7455 105.626 83.3173C105.74 83.6019 105.897 83.8494 106.115 84.043C98.3979 83.7724 90.5649 83.3793 83.3191 82.985C80.307 82.8212 77.3951 82.657 74.6347 82.5014C65.4102 81.9813 57.8777 81.5567 53.9544 81.5567C49.3359 81.5567 44.0365 82.0142 38.6266 82.4813C38.0555 82.5306 37.4831 82.58 36.9102 82.629C30.8967 83.1432 24.8151 83.6119 19.3738 83.443C13.921 83.2737 9.18665 82.4647 5.82774 80.4791C4.1572 79.4916 2.83211 78.216 1.92176 76.5831C1.01086 74.9492 0.5 72.9301 0.5 70.4337C0.5 60.266 4.50718 44.4837 11.0565 31.241C14.3292 24.6235 18.2221 18.6707 22.5397 14.3796C26.8604 10.0853 31.5589 7.5 36.4544 7.5ZM124.203 84.395C119.578 84.3991 114.66 84.3088 109.647 84.1582C109.869 84.1112 110.102 84.0605 110.347 84.0073L110.455 83.9839C110.979 83.8702 111.559 83.7452 112.202 83.6176C114.77 83.1085 118.371 82.5567 123.41 82.5567C127.394 82.5567 133.056 82.9006 139.602 83.2981C140.8 83.3709 142.028 83.4454 143.28 83.52C142.602 83.6031 141.895 83.6798 141.16 83.7501C136.418 84.2037 130.594 84.3894 124.203 84.395ZM105.498 30.5989C103.056 29.0256 100.536 27.4878 97.9539 25.9989C97.3002 21.3721 97.1361 17.2857 97.8276 14.132C98.2893 12.0265 99.1233 10.3811 100.406 9.26028C101.684 8.14437 103.462 7.49999 105.91 7.49999C113.801 7.49999 120.098 10.1995 126.109 14.5826C131.186 18.2847 136.035 23.1678 141.466 28.6358C142.488 29.6655 143.532 30.7159 144.601 31.7831C147.172 34.3501 149.888 37.007 152.82 39.6938C152.276 40.4669 151.745 41.231 151.229 41.9876C145.637 50.1901 141.749 57.5783 140.752 66.0806C140.286 64.6306 139.61 63.1222 138.75 61.5718C136.983 58.3893 134.42 54.9974 131.22 51.5236C124.821 44.5757 115.842 37.2618 105.498 30.5989ZM207.603 69.9556C182.506 62.259 166.431 50.7007 154.147 39.5503C155.991 36.9539 157.99 34.2517 160.112 31.3819C161.165 29.9574 162.249 28.4916 163.36 26.977C167.547 21.2673 172.105 14.8794 176.814 7.43876C232.643 -5.9752 257.173 4.79818 267.848 21.1674C273.216 29.3984 275.139 39.119 275.711 48.0972C276.099 54.1989 275.865 59.8934 275.673 64.5511C275.582 66.7698 275.5 68.7533 275.5 70.4335C275.5 75.2227 271.809 78.3994 265.57 80.434C259.352 82.4618 250.812 83.2729 241.587 83.4427C232.371 83.6123 222.517 83.1418 213.687 82.6279C211.817 82.5191 209.993 82.4083 208.229 82.3011C203.841 82.0346 199.832 81.7911 196.457 81.6593C196.754 81.5704 197.047 81.4789 197.336 81.3848C203.681 79.3158 207.956 75.9079 207.956 70.4336V70.064L207.603 69.9556Z" fill="white" stroke="black"/>
</svg>
